<svg xmlns="http://www.w3.org/2000/svg" viewBox="0 0 170.37 183.74"><defs><style>.cls-1{isolation:isolate;}.cls-2{fill:#fff;}.cls-3{fill:#be0136;}.cls-4{fill:#20335a;}.cls-5,.cls-6{fill:#bcbcbc;}.cls-6{mix-blend-mode:multiply;}.cls-7{fill:#c0c0c2;}.cls-8{fill:#e4e4e6;}.cls-9{fill:#d4203a;}.cls-10{fill:#007dc0;}</style></defs><title>logo</title><g class="cls-1"><g id="Isolation_Mode" data-name="Isolation Mode"><path class="cls-2" d="M119,85.84c1.06,18,6.6,24,13.6,33.64s9.07,15.46,9.07,15.46,9.34-18,2.7-38.31-22.8-34.49-27.22-42.37l-4,5.73S118.23,73.15,119,85.84Z" transform="translate(-14.77 -7.8)"/><path class="cls-3" d="M119,85.84c1.06,18,6.6,24,13.6,33.64s9.07,15.46,9.07,15.46,5.67-13.53-1-33.88-19.14-38.92-23.56-46.8l-4,5.73S118.23,73.15,119,85.84Z" transform="translate(-14.77 -7.8)"/><path class="cls-4" d="M117.07,58.54c1.4,1.93,3.17,4.07,5.09,6.41,6.53,8,15.47,18.83,19.9,32.42,4.24,13,1.56,25.13-.6,31.59a102.1,102.1,0,0,0-6.94-10.89l-1.78-2.43c-6.07-8.23-10.45-14.19-11.37-29.94-.63-10.82-4.26-21.77-5.55-25.37l1.25-1.79m.05-4.28-4,5.73s5.1,13.16,5.84,25.85c1.06,18,6.6,24,13.6,33.64s9.07,15.46,9.07,15.46,9.34-18,2.7-38.31-22.8-34.49-27.22-42.37Z" transform="translate(-14.77 -7.8)"/><path class="cls-4" d="M117.75,64.27c5.21,6.83,8.66,23.31,12,30.37,2.91,6.11,5.34,12.41,5.34,12.41s-1.31-12.52-4-19.46-4.69-15.41-12.31-27.3Z" transform="translate(-14.77 -7.8)"/><path class="cls-2" d="M80.88,85.84c-1.06,18-6.6,24-13.6,33.64s-9.07,15.46-9.07,15.46-9.34-18-2.7-38.31,22.8-34.49,27.22-42.37l4,5.73S81.62,73.15,80.88,85.84Z" transform="translate(-14.77 -7.8)"/><path class="cls-3" d="M80.88,85.84c-1.06,18-6.6,24-13.6,33.64s-9.07,15.46-9.07,15.46-5.67-13.53,1-33.88,19.13-38.92,23.55-46.8l4,5.73S81.62,73.15,80.88,85.84Z" transform="translate(-14.77 -7.8)"/><path class="cls-4" d="M82.78,58.54,84,60.33c-1.29,3.6-4.92,14.55-5.55,25.37-.92,15.75-5.3,21.71-11.36,29.94-.58.79-1.18,1.6-1.78,2.43a96.81,96.81,0,0,0-7,10.91c-2.17-6.45-4.85-18.55-.6-31.61C62.22,83.78,71.16,72.9,77.69,65c1.93-2.34,3.69-4.48,5.09-6.41m0-4.28c-4.42,7.88-20.59,22-27.22,42.37s2.7,38.31,2.7,38.31,2.07-5.8,9.07-15.46,12.54-15.62,13.6-33.64C81.62,73.15,86.72,60,86.72,60l-4-5.73Z" transform="translate(-14.77 -7.8)"/><path class="cls-4" d="M82.1,64.27c-5.21,6.83-8.66,23.31-12,30.37-2.9,6.11-5.34,12.41-5.34,12.41s1.31-12.52,4-19.46,4.69-15.41,12.31-27.3Z" transform="translate(-14.77 -7.8)"/><path class="cls-2" d="M46,94.5a269.73,269.73,0,0,0,43.25,33.35c22.29,13.81,50.23,14.46,50.23,14.46s15.63,20.35,28.57,26.74c0,0-34.29,1.69-65.14-15.7s-60-54.21-60-54.21Z" transform="translate(-14.77 -7.8)"/><path class="cls-5" d="M46,94.5a189.89,189.89,0,0,0,42,35.72c22.3,13.81,49.36,15.88,49.36,15.88s10.74,14.44,20.4,20.78c0,0-24,3.86-54.88-13.53s-60-54.21-60-54.21Z" transform="translate(-14.77 -7.8)"/><path class="cls-4" d="M44.12,95s12.66,15.38,34.61,33.77c17.44,14.61,43.94,26.68,43.94,26.68s-33.9-13.07-62.35-39.55c-13.6-12.65-17.7-18.31-17.7-18.31Z" transform="translate(-14.77 -7.8)"/><path class="cls-4" d="M46,94.5a269.73,269.73,0,0,0,43.25,33.35c22.29,13.81,50.23,14.46,50.23,14.46s15.63,20.35,28.57,26.74c0,0-.91,0-2.55,0-8.5,0-36.75-1.19-62.59-15.75-30.85-17.4-60-54.21-60-54.21L46,94.5m-.46-4.69-2,3-3.13,4.63-1.24,1.83L40.55,101c1.2,1.52,29.91,37.48,60.92,55,26.56,15,55.75,16.14,64.07,16.14,1.7,0,2.66-.05,2.7-.05l11.58-.57-10.4-5.14c-12.17-6-27.36-25.68-27.51-25.88l-.88-1.14-1.44,0c-.27,0-27.41-.81-48.72-14A267.75,267.75,0,0,1,48.16,92.36l-2.58-2.55Z" transform="translate(-14.77 -7.8)"/><path class="cls-4" d="M21.62,76.68c1.24,1,2,2.14,3.06,2.85,16.44,4.53,22.18,11.13,22.18,11.13l-6.2,9.8C36.35,93.5,25.93,86,22.72,84.24c0,0-4.56.83-6.44-.12-2.89-1.47-1-5.38.19-7A3.52,3.52,0,0,1,21.62,76.68Z" transform="translate(-14.77 -7.8)"/><path class="cls-4" d="M19,89.23a25.69,25.69,0,0,1,5.34-8.29l1.22,1.23a14.5,14.5,0,0,0-3.75,6.62c-1.41,4.87-.1,11.41,6.58,13.78,3.41,1.21,8,.2,10.15-2.64.9-1.16,1.82-2.51,2.72-3.83C43.38,93,45.12,89.84,47.72,88c1.11-.81,5.26-2.91,9-.37,3.06,2.11,1,5.56-1.81,5.62s-4.27-1.14-5.74-.9c-1.93.32-3.71,2.83-5.62,5.65-.91,1.33-1.85,2.71-2.78,3.91-1.81,2.33-5.58,7.49-13.18,5.68a15.32,15.32,0,0,1-2.44-.79C18.64,104,16.13,96.81,19,89.23Z" transform="translate(-14.77 -7.8)"/><path class="cls-5" d="M43,90.83C40,87.65,31.66,83.28,26.07,82.07l0,.39a44.68,44.68,0,0,1,10.13,5,9.38,9.38,0,0,1,3.9,8.61h0a19.31,19.31,0,0,1,1.67-3.31A13,13,0,0,0,43,90.83Z" transform="translate(-14.77 -7.8)"/><path class="cls-2" d="M22.07,80a4.22,4.22,0,0,0-3-2.24c-2.24-.15-2.43,3.41-2.43,3.41s1.48-1.67,2.19-1.75A5.51,5.51,0,0,1,22.07,80Z" transform="translate(-14.77 -7.8)"/><path class="cls-2" d="M38,101.86a5.88,5.88,0,0,1-2.28,2.29c-1.92,1.31-7.21,2.49-12.17-1.57A11.33,11.33,0,0,1,20,91.38,11.22,11.22,0,0,0,25.9,103C33.28,107,38,101.86,38,101.86Z" transform="translate(-14.77 -7.8)"/><path class="cls-2" d="M51.33,88.43c1.23-.14,3.73.26,3.67,1.39s-1.57.14-3,0a24.69,24.69,0,0,0-3.54,0A4,4,0,0,1,51.33,88.43Z" transform="translate(-14.77 -7.8)"/><path class="cls-2" d="M153.87,94.5a269.73,269.73,0,0,1-43.25,33.35c-22.3,13.81-50.24,14.46-50.24,14.46s-15.62,20.35-28.56,26.74c0,0,34.29,1.69,65.14-15.7s60-54.21,60-54.21Z" transform="translate(-14.77 -7.8)"/><path class="cls-5" d="M153.87,94.5a189.81,189.81,0,0,1-42,35.72C89.54,144,62.68,145.84,62.68,145.84s-10.31,14.7-21.38,20.91c0,0,24.81,4,55.66-13.4s60-54.21,60-54.21Z" transform="translate(-14.77 -7.8)"/><path class="cls-4" d="M155.78,95s-12.65,15.38-34.6,33.77c-17.44,14.61-43.94,26.68-43.94,26.68s33.9-13.07,62.35-39.55c13.6-12.65,17.7-18.31,17.7-18.31Z" transform="translate(-14.77 -7.8)"/><path class="cls-4" d="M153.87,94.5,157,99.14S127.81,136,97,153.35C71.12,167.91,42.87,169.1,34.37,169.1c-1.64,0-2.55,0-2.55,0,12.94-6.39,28.56-26.74,28.56-26.74s27.94-.65,50.24-14.46A269.73,269.73,0,0,0,153.87,94.5m.46-4.69-2.58,2.55A268.48,268.48,0,0,1,109,125.29c-21.3,13.2-48.45,14-48.72,14l-1.44,0L58,140.47c-.16.2-15.36,19.88-27.51,25.88l-10.4,5.14,11.58.57s1,.05,2.7.05c8.32,0,37.51-1.17,64.07-16.14,31-17.48,59.71-53.44,60.92-55l1.37-1.73-1.23-1.83-3.13-4.63-2-3Z" transform="translate(-14.77 -7.8)"/><path class="cls-4" d="M178.28,76.68c-1.24,1-2,2.14-3.05,2.85-16.44,4.53-22.18,11.13-22.18,11.13l6.2,9.8c4.31-7,14.73-14.44,17.94-16.22,0,0,4.56.83,6.43-.12,2.9-1.47,1-5.38-.18-7A3.53,3.53,0,0,0,178.28,76.68Z" transform="translate(-14.77 -7.8)"/><path class="cls-4" d="M180.9,89.23a25.75,25.75,0,0,0-5.33-8.29l-1.22,1.23a14.44,14.44,0,0,1,3.74,6.62c1.41,4.87.11,11.41-6.58,13.78-3.4,1.21-7.94.2-10.15-2.64-.89-1.16-1.81-2.51-2.71-3.83-2.12-3.12-3.86-6.26-6.46-8.14-1.11-.81-5.26-2.91-9-.37-3.07,2.11-1,5.56,1.81,5.62s4.27-1.14,5.74-.9c1.93.32,3.7,2.83,5.62,5.65.91,1.33,1.84,2.71,2.77,3.91,1.81,2.33,5.59,7.49,13.19,5.68a15.32,15.32,0,0,0,2.44-.79C181.26,104,183.78,96.81,180.9,89.23Z" transform="translate(-14.77 -7.8)"/><path class="cls-5" d="M157,90.83c2.92-3.18,11.29-7.55,16.88-8.76l0,.39a44.68,44.68,0,0,0-10.13,5,9.38,9.38,0,0,0-3.9,8.61h0a18.88,18.88,0,0,0-1.68-3.31A13.38,13.38,0,0,1,157,90.83Z" transform="translate(-14.77 -7.8)"/><path class="cls-2" d="M177.83,80a4.22,4.22,0,0,1,3-2.24c2.24-.15,2.43,3.41,2.43,3.41s-1.49-1.67-2.19-1.75A5.53,5.53,0,0,0,177.83,80Z" transform="translate(-14.77 -7.8)"/><path class="cls-2" d="M161.91,101.86a5.88,5.88,0,0,0,2.29,2.29c1.92,1.31,7.21,2.49,12.17-1.57A11.33,11.33,0,0,0,180,91.38,11.22,11.22,0,0,1,174,103C166.62,107,161.91,101.86,161.91,101.86Z" transform="translate(-14.77 -7.8)"/><path class="cls-2" d="M148.58,88.43c-1.23-.14-3.74.26-3.67,1.39s1.57.14,3,0a24.56,24.56,0,0,1,3.53,0A3.91,3.91,0,0,0,148.58,88.43Z" transform="translate(-14.77 -7.8)"/><path class="cls-6" d="M134.65,54.33v-.41H65.45c0,.13,0,.27,0,.41.27,8.44-2.64,14-2.78,22.88-.14,9.07,2.05,18.4,6.81,20.61s5.78,2.89,5.85,6.71,1.35,4.78.4,9.4,2.79,6.56,6.51,10.61,4.7,9.06,8.36,11.52c2.78,1.88,7.36,2.05,9.44,2s6.66-.14,9.44-2c3.67-2.46,4.6-7.42,8.36-11.52s7.49-5.94,6.52-10.61.33-5.54.4-9.4,1.06-4.49,5.85-6.71,6.94-11.54,6.8-20.61C137.29,68.38,134.37,62.77,134.65,54.33Z" transform="translate(-14.77 -7.8)"/><path class="cls-7" d="M134.65,54.33v-.41H65.45c0,.13,0,.27,0,.41.27,8.44-2.64,14-2.78,22.88-.14,9.07,2.05,18.4,6.81,20.61s5.78,2.89,5.85,6.71,1.35,4.78.4,9.4,2.79,6.56,6.51,10.61,4.7,9.06,8.36,11.52c2.78,1.88,7.36,2.05,9.44,2s6.66-.14,9.44-2c3.67-2.46,4.6-7.42,8.36-11.52s7.49-5.94,6.52-10.61.33-5.54.4-9.4,1.06-4.49,5.85-6.71,6.94-11.54,6.8-20.61C137.29,68.38,134.37,62.77,134.65,54.33Z" transform="translate(-14.77 -7.8)"/><path class="cls-8" d="M115.69,105.83a6.45,6.45,0,0,1-4,4c-3,1.28-11.58,1.38-15.21,1.28-4.43-.11-6.91-.42-8.94-1.41a5,5,0,0,1-2.77-3.36c-.14.18-.23.32-.23.32-.4,1.9.15,4.79,3.2,7,0,0,4.78,1.76,8.4,1.45s12.78,0,15.81-1.25,4.61-5.44,3.78-7.93Z" transform="translate(-14.77 -7.8)"/><path class="cls-4" d="M124.49,101.06c.32,2.59.11,5.72,1.94,7.6s3.41,2.85,2.44,4.43-7.42,6.52-7.42,6.52,1-8.64,1.5-12.56A18.46,18.46,0,0,1,124.49,101.06Z" transform="translate(-14.77 -7.8)"/><path class="cls-4" d="M75.16,101.06c-.32,2.59-.11,5.72-1.94,7.6s-3.41,2.85-2.44,4.43,7.42,6.52,7.42,6.52-1-8.64-1.5-12.56A18.46,18.46,0,0,0,75.16,101.06Z" transform="translate(-14.77 -7.8)"/><path class="cls-4" d="M131.31,57.27a61.91,61.91,0,0,0,1.38,9.51,54.64,54.64,0,0,1,1.38,10.48c.14,9.48-2.36,16.35-4.86,17.51-5.06,2.35-7.7,3.85-7.8,9.7a15.15,15.15,0,0,1-.35,2.9,16.2,16.2,0,0,0,0,7.24c.34,1.6-.27,2.37-3,5-.82.78-1.75,1.67-2.69,2.69a31.55,31.55,0,0,0-4.3,6.33c-1.17,2.1-2.1,3.76-3.46,4.68s-4,1.45-7.19,1.45h-.76c-3.15,0-5.84-.54-7.18-1.45S90.2,130.7,89,128.6a32.06,32.06,0,0,0-4.31-6.33c-.94-1-1.87-1.91-2.69-2.69-2.73-2.6-3.34-3.37-3-5a16.09,16.09,0,0,0,0-7.24,15.15,15.15,0,0,1-.35-2.9c-.11-5.85-2.75-7.35-7.8-9.7-2.5-1.16-5-8-4.86-17.51a54.64,54.64,0,0,1,1.38-10.48,63.21,63.21,0,0,0,1.37-9.51h62.52m3.34-3.35H65.45c0,.13,0,.27,0,.41.27,8.44-2.64,14-2.78,22.88-.14,9.07,2.05,18.4,6.81,20.61s5.78,2.89,5.85,6.71,1.35,4.78.4,9.4,2.79,6.56,6.51,10.61,4.7,9.06,8.36,11.52c2.62,1.77,6.85,2,9.06,2h.76c2.22,0,6.44-.26,9.06-2,3.67-2.46,4.6-7.42,8.36-11.52s7.49-5.94,6.52-10.61.33-5.54.4-9.4,1.06-4.49,5.85-6.71,6.94-11.54,6.8-20.61c-.13-8.83-3-14.44-2.77-22.88v-.41Z" transform="translate(-14.77 -7.8)"/><path class="cls-6" d="M71.27,48.55c-2.26.08-4.38,6.22-5.08,7.51a10.29,10.29,0,0,0-.71,3.85l-.31,13.55s2.47,1.83,9.48,3c8.62,1.42,11.58,2,23.85,2a109.5,109.5,0,0,0,26.07-2.78,92.61,92.61,0,0,0,11-3.14c.86-2.36,2-10.87.19-11.94,0,0-.55-2.25-1.45-6.1a7.49,7.49,0,0,0-4-5.14s-18.19,1.89-26,2.48C88.79,53,73.52,48.47,71.27,48.55Z" transform="translate(-14.77 -7.8)"/><path class="cls-8" d="M105,89.28s3.7,5.62,6.11,7,6.34.6,10-1.82c3.44-2.28,4.35-12.41,4.35-12.41l-18.06,5.69Z" transform="translate(-14.77 -7.8)"/><path class="cls-8" d="M94.79,89.28s-3.71,5.62-6.12,7-6.33.6-10-1.82c-3.45-2.28-4.36-12.41-4.36-12.41l18.07,5.69Z" transform="translate(-14.77 -7.8)"/><path class="cls-4" d="M103.56,82.5c2.79-.27,8.91-2.83,15.12-5.31,2.61-1,4.42.48,6.3,2.87,1.32,1.69-.18,4.92-2,8.63s-4.5,3.1-7.91,2.67a26.33,26.33,0,0,1-5.52-1.66s2,1.73,4.39,3.51A24.13,24.13,0,0,1,106.81,91C103.3,89.21,103.56,82.5,103.56,82.5Z" transform="translate(-14.77 -7.8)"/><path class="cls-5" d="M111.15,83.45c2.81-1.55,4.6-2.87,6-2.87s2.09.9,1.44,2.15A5.22,5.22,0,0,1,114,85,5.42,5.42,0,0,1,111.15,83.45Z" transform="translate(-14.77 -7.8)"/><path class="cls-4" d="M96.16,82.5c-2.78-.27-8.91-2.83-15.12-5.31-2.61-1-4.42.48-6.3,2.87-1.32,1.69.18,4.92,2,8.63s4.49,3.1,7.91,2.67a26.37,26.37,0,0,0,5.51-1.66s-2,1.73-4.38,3.51A24.21,24.21,0,0,0,92.92,91C96.42,89.21,96.16,82.5,96.16,82.5Z" transform="translate(-14.77 -7.8)"/><path class="cls-5" d="M88.57,83.45c-2.8-1.55-4.6-2.87-6-2.87s-2.09.9-1.43,2.15A5.21,5.21,0,0,0,85.71,85,5.37,5.37,0,0,0,88.57,83.45Z" transform="translate(-14.77 -7.8)"/><path class="cls-4" d="M101.83,89.28H97.5S95.89,97,90.9,99c0,0,0,3.53,2.64,3.63,1.48.06,2.71.25,3.76-.41a13.45,13.45,0,0,0,2.17-2.45,12.23,12.23,0,0,0,2.11,2.33c1.21.72,2.63.59,4.22.53,2.64-.1,2.64-3.63,2.64-3.63C103.44,97,101.83,89.28,101.83,89.28Z" transform="translate(-14.77 -7.8)"/><path class="cls-4" d="M115,112.71l-.51-2.31s-2.48,2.81-4.69,2.81-1.69-4.55-1.69-4.55h-2.46s.13,3.82-.65,4.55-3.37.86-3.37,0-.6-4.55-.6-4.55H98.53s-.59,3.7-.59,4.55-2.6.74-3.38,0-.65-4.55-.65-4.55H91.45s.52,4.55-1.69,4.55-4.69-2.81-4.69-2.81l-.5,2.31a38.73,38.73,0,0,0,5.44,3,6.58,6.58,0,0,1,1.46,1.21c.44.59.19,3.25.19,3.25l1.85.5s.19-2.8.25-3.19a1.47,1.47,0,0,1,1-1l3,.21h0a2.8,2.8,0,0,1,1.22,2.68v2a2.5,2.5,0,0,0,1.76,0v-2.6a2.27,2.27,0,0,1,1.42-2.17l2.79-.17c.44,0,1,.66,1,1s.25,3.19.25,3.19l1.85-.5s-.25-2.66.19-3.25a8.78,8.78,0,0,1,1.78-1.42h0A41.89,41.89,0,0,0,115,112.71Z" transform="translate(-14.77 -7.8)"/><path class="cls-4" d="M71.27,45c-2.26.08-4.38,6.22-5.08,7.51a10.29,10.29,0,0,0-.71,3.85l-.64,13.81s2.8,1.57,9.81,2.72c8.62,1.42,11.58,2,23.85,2a109.5,109.5,0,0,0,26.07-2.78c8.57-2.11,11-3.14,11-3.14.86-2.35,2-10.86.19-11.94,0,0-.55-2.24-1.45-6.1a7.52,7.52,0,0,0-4-5.14s-18.19,1.89-26,2.48C88.79,49.46,73.52,45,71.27,45Z" transform="translate(-14.77 -7.8)"/><path class="cls-9" d="M66.54,62.34c-.55,1.61.62,3.53,3.3,5.12S83,72.3,100.57,72.29c15.7,0,31.23-6.43,33.13-7.52,2.55-1.45-.37-4.79-.37-4.79a43.28,43.28,0,0,1-6.85,2.4A39.11,39.11,0,0,1,113.42,64s14.16-3.7,17.89-7.23c1.62-1.53-1.7-8.35-1.7-8.35a170.69,170.69,0,0,1-25,1.08c-15.08-.32-33.94-.58-33.94-.58l-1.43,7s1.77,2,9.76,4.91c11.12,4,17.34,4.49,17.34,4.49a43.39,43.39,0,0,1-22.44-3c-5.16-2.2-6.13-3.66-6.13-3.66S66.73,61.78,66.54,62.34Z" transform="translate(-14.77 -7.8)"/><path class="cls-6" d="M77.22,60.11c8-.47,15-1.24,24.88-1.43,6.1-.12,14.54-.07,20.1,2.59,3.66-1.3,7.44-2.92,9.11-4.5s-1.7-8.35-1.7-8.35a170.69,170.69,0,0,1-25,1.08c-15.08-.32-33.94-.58-33.94-.58l-1.43,7S70.79,57.61,77.22,60.11Z" transform="translate(-14.77 -7.8)"/><path class="cls-6" d="M133.33,60a43.28,43.28,0,0,1-6.85,2.4c-.46.13-.92.26-1.37.37,1.91,1,3.77,2.16,5.56,3.37a28.11,28.11,0,0,0,3-1.35C136.25,63.32,133.33,60,133.33,60Z" transform="translate(-14.77 -7.8)"/><path class="cls-6" d="M73.44,62.12c-4.72-2.07-5.63-3.44-5.63-3.44s-1.08,3.1-1.27,3.66c-.4,1.16.12,2.49,1.44,3.74A38,38,0,0,1,73.44,62.12Z" transform="translate(-14.77 -7.8)"/><path class="cls-2" d="M170.5,56.48s-13.22,12.41-20,15-16.4,2-16.4,2,.17-4,0-6.43-.85-4.59-7.8-9c-5.21-3.32-18.85-5.35-25.71-5.44h-.53c-6.68,0-21.66,2-27,5.45-7,4.44-7.63,6.59-7.79,9s0,6.43,0,6.43-9.64.61-16.42-2-20-15-20-15S27.9,49.75,38,46.32c7.64-2.61,11.06-4.26,12.94-7C53.17,36,56,29.08,60.2,23.42S77.62,8.26,92,7.81c0,0,2.83,17.61,7.63,17.61s7.63-17.61,7.63-17.61c14.42.45,27.61,9.94,31.85,15.61s7,12.53,9.31,15.88c1.87,2.75,5.29,4.4,12.88,7h0C171.44,49.75,170.5,56.48,170.5,56.48Z" transform="translate(-14.77 -7.8)"/><path class="cls-10" d="M168,56.48s-12,11.15-18.76,13.75a35.28,35.28,0,0,1-13.89,2s.16-4,0-6.43.4-3.34-6.56-7.78c-5.21-3.32-21.35-6.6-28.21-6.69h-.53c-6.68,0-22.91,2-28.26,5.45-7,4.43-7.63,7.84-7.8,10.28a20.53,20.53,0,0,1-1.25,5.18s-4.62.61-11.4-2-20-15-20-15S29.15,51,39.2,47.57c7.64-2.6,9.81-4.26,11.69-7,2.28-3.36,6.76-8.25,11.79-13.24,6.07-6,14.44-10.3,25.1-12,0,0,3.8,13.32,11.88,13.32,9.22,0,11.49-12.32,11.49-12.32,14.42.45,22.63,6.29,26.88,12s6.88,8.88,9.17,12.24c1.87,2.74,5.29,4.39,12.88,7h0C170.19,51,168,56.48,168,56.48Z" transform="translate(-14.77 -7.8)"/><path class="cls-6" d="M160.14,46.15l0,0L152,45.52s1,10.82-10,4.7C134,45.84,127.68,43.14,122.31,42c0,0,5,3.87,4.3,7.77,0,0-13.48-3.6-26-3.6A124.74,124.74,0,0,0,74,49.53C73.93,45.82,78.39,42,78.39,42c-5.48,1.19-11.53,4.16-20,8.27-11.61,5.61-10.24-4.7-10.24-4.7l-8.29.61,0,0c-10.06,3.38-9.12,10-9.12,10S43.87,68.39,50.66,71a38.94,38.94,0,0,0,11.62,2c1.52-6.72,5.21-14,11.21-17.42C81.42,51,92,50.43,100.89,50.8c9.65.4,20,2.32,28.25,7.67,5.7,3.7,7,8.9,7.86,14.49a38.89,38.89,0,0,0,12.47-2c6.65-2.56,19.6-14.79,19.6-14.79S170,49.53,160.14,46.15Z" transform="translate(-14.77 -7.8)"/><path class="cls-4" d="M110,11.38c12.3,1.48,23.1,9.62,26.41,14.05a74.2,74.2,0,0,1,6.05,10.16,63.64,63.64,0,0,0,3.17,5.61c2.49,3.65,6.7,5.59,14.63,8.3,5.06,1.73,6.41,4.2,6.76,5.6C162.79,59,153.88,66.59,149.3,68.35c-3.85,1.47-8.91,1.79-12,1.82,0-.77-.08-1.6-.14-2.38-.24-3.5-2.82-8.62-9.32-12.5-6.14-3.66-20.81-6.09-27.82-6.09-6.81,0-22.07,2-28.22,5.9-7.22,4.61-9.24,8.95-9.66,11.78a29,29,0,0,0-.26,3.29c-3.08,0-8.07-.36-11.87-1.82C45.45,66.59,36.54,59,32.27,55.1c.35-1.4,1.71-3.87,6.76-5.6,7.93-2.71,12.14-4.65,14.63-8.3a61.19,61.19,0,0,0,3.17-5.61,74.2,74.2,0,0,1,6.05-10.16C66.19,21,77,12.86,89.29,11.38c.36,1.7.87,3.94,1.54,6.19,1.55,5.22,4,11.21,8.84,11.21s7.28-6,8.83-11.21c.67-2.25,1.18-4.49,1.54-6.19M107.3,7.8s-2.83,17.63-7.63,17.63S92,7.8,92,7.8c-14.41.46-27.6,10-31.84,15.62s-7,12.52-9.31,15.89c-1.87,2.75-5.3,4.4-12.94,7-10,3.44-9.12,10.16-9.12,10.16s13.23,12.4,20,15c4.61,1.77,10.54,2.06,13.86,2.06,1.57,0,2.55-.07,2.55-.07a44.19,44.19,0,0,1,.26-6.1c.19-1.29,1.18-5,8.13-9.44,5.35-3.42,19.74-5.38,26.42-5.38s20.66,2.38,26.11,5.63,7.51,7.39,7.68,9.84.25,5.45.25,5.45,1,.07,2.55.07c3.32,0,9.25-.29,13.86-2.06,6.78-2.6,20-15,20-15s.93-6.72-9.12-10.16c-7.64-2.61-11.07-4.26-12.94-7-2.29-3.37-5.07-10.23-9.31-15.89S121.71,8.26,107.3,7.8Z" transform="translate(-14.77 -7.8)"/><path class="cls-4" d="M114.46,110.4c.58-.62.66-3.62.51-5.29s2-2.36,3.36-2.19,4.44-2.59,4.44-2.59l-.64,4.15s-4.72,2.3-5.07,5.3-.56,6.17-2.09,7-1.54-1.38-2.75-1.38-2.22,0-2.22,0a11,11,0,0,0,2.85-2.64A8.19,8.19,0,0,0,114.46,110.4Z" transform="translate(-14.77 -7.8)"/><path class="cls-4" d="M85.47,110.4c-.58-.62-.65-3.62-.5-5.29s-2-2.36-3.36-2.19-4.44-2.59-4.44-2.59l.63,4.15s4.73,2.3,5.07,5.3.56,6.17,2.1,7,1.54-1.38,2.75-1.38,2.21,0,2.21,0a11.14,11.14,0,0,1-2.85-2.64A8.19,8.19,0,0,1,85.47,110.4Z" transform="translate(-14.77 -7.8)"/><path class="cls-4" d="M123,53.42c12.65,4.9,12.66,4.84,19,7.8,4.28,2,9.57.87,9.57.87s-6.26,6.7-15.16,4.76a38.57,38.57,0,0,0-5.8-7.84A24,24,0,0,0,123,53.42Z" transform="translate(-14.77 -7.8)"/><path class="cls-4" d="M76.2,53.42c-12.64,4.9-11.1,4.84-17.41,7.8-4.28,2-9.56.87-9.56.87s6.25,6.7,15.15,4.76A38.57,38.57,0,0,1,70.18,59,44.61,44.61,0,0,1,76.2,53.42Z" transform="translate(-14.77 -7.8)"/><path class="cls-4" d="M68.22,71c-.67,3.79-.54,9.53,1.72,13.23a7.54,7.54,0,0,1-5.79-5.73,10.27,10.27,0,0,1,1.11-8.22Z" transform="translate(-14.77 -7.8)"/><path class="cls-4" d="M131.2,69.53c.66,3.79.66,11-1.6,14.74a7.54,7.54,0,0,0,5.79-5.73,15.29,15.29,0,0,0-1.23-9.73Z" transform="translate(-14.77 -7.8)"/><path class="cls-2" d="M90.28,124c1.8,2.85,1.44,4.4,3.64,6.29s8.65,2,11.12.91,3.4-4.86,4.59-7.2a16.41,16.41,0,0,1-7.06,2.2,25.89,25.89,0,0,1-7.31-.53A44.66,44.66,0,0,1,90.28,124Z" transform="translate(-14.77 -7.8)"/><path class="cls-4" d="M34,177.74h3.4c2,0,2.95.95,2.95,2.85v7.86c0,1.89-1,2.83-3.09,2.84H34Zm2.21,1.92v9.7h1c.65,0,1-.3,1-.91v-7.86c0-.62-.32-.93-1-.93Z" transform="translate(-14.77 -7.8)"/><path class="cls-4" d="M48.44,188.69q0,2.84-3.18,2.85c-2.12,0-3.17-.95-3.17-2.85V180.4c0-1.9,1-2.85,3.17-2.85s3.18.95,3.18,2.85Zm-2.21-8.29c0-.61-.32-.92-1-.92h0a.83.83,0,0,0-1,.92v8.29c0,.61.32.91,1,.91s1-.3,1-.91Z" transform="translate(-14.77 -7.8)"/><path class="cls-4" d="M55.12,187l2.57-9.28h2.22v13.55H57.79v-7.6l-1.89,7.6H54.4l-1.95-7.6v7.6H50.31V177.74h2.21Z" transform="translate(-14.77 -7.8)"/><path class="cls-4" d="M62,177.74h2.21v13.55H62Z" transform="translate(-14.77 -7.8)"/><path class="cls-4" d="M66.26,177.74h2.21l2.09,7.86v-7.86h2v13.55H70.4l-2-7.61v7.61H66.26Z" transform="translate(-14.77 -7.8)"/><path class="cls-4" d="M74.68,177.74h2.21v13.55H74.68Z" transform="translate(-14.77 -7.8)"/><path class="cls-4" d="M85.16,188.69q0,2.84-3.18,2.85t-3.18-2.85V180.4q0-2.85,3.18-2.85t3.18,2.85v1.82H82.94V180.4c0-.61-.32-.92-1-.92h0a.83.83,0,0,0-1,.92v8.29c0,.61.32.91,1,.91s1-.3,1-.91v-1.82h2.22Z" transform="translate(-14.77 -7.8)"/><path class="cls-4" d="M93.15,188.69q0,2.84-3.18,2.85c-2.12,0-3.17-.95-3.17-2.85V180.4c0-1.9,1-2.85,3.17-2.85s3.18.95,3.18,2.85Zm-2.21-8.29c0-.61-.32-.92-1-.92h0a.83.83,0,0,0-.95.92v8.29c0,.61.32.91,1,.91s1-.3,1-.91Z" transform="translate(-14.77 -7.8)"/><path class="cls-4" d="M94.87,180.4c0-1.9,1-2.85,3.17-2.85s3.18.95,3.18,2.85v1.82H99V180.4c0-.61-.32-.92-1-.92h0a.83.83,0,0,0-1,.92v1.22q0,.91,2.07,2.22a3.73,3.73,0,0,1,2.07,3.14v1.71q0,2.85-3.17,2.85t-3.18-2.85v-1.82h2.21v1.82c0,.61.32.91,1,.91s1-.3,1-.91v-1.55c0-.66-.69-1.42-2.07-2.3a3.74,3.74,0,0,1-2.07-3.17Z" transform="translate(-14.77 -7.8)"/><path class="cls-4" d="M109.26,186.48l.72,4.81h-2.24l-.43-2.88h-2.26l-.43,2.88h-2.23l.72-4.79,1.56-8.76h3Zm-2.24,0-.84-5.64-.84,5.64Z" transform="translate(-14.77 -7.8)"/><path class="cls-4" d="M111.3,191.29V177.74h2.21v11.62H117v1.93Z" transform="translate(-14.77 -7.8)"/><path class="cls-4" d="M123,191.29h-3l-1.56-8.76-.72-4.79h2.24l1.55,10.44L123,177.74h2.23l-.72,4.81Z" transform="translate(-14.77 -7.8)"/><path class="cls-4" d="M132.74,186.48l.72,4.81h-2.23l-.43-2.88h-2.26l-.44,2.88h-2.23l.72-4.79,1.57-8.76h3Zm-2.23,0-.85-5.64-.84,5.64Z" transform="translate(-14.77 -7.8)"/><path class="cls-4" d="M140.15,177.74v1.92h-2.07v11.63h-2.21V179.66H133.8v-1.92Z" transform="translate(-14.77 -7.8)"/><path class="cls-4" d="M147.75,188.69q0,2.84-3.18,2.85t-3.17-2.85V180.4q0-2.85,3.17-2.85t3.18,2.85Zm-2.21-8.29c0-.61-.32-.92-1-.92h0a.83.83,0,0,0-.95.92v8.29c0,.61.32.91,1,.91s1-.3,1-.91Z" transform="translate(-14.77 -7.8)"/><path class="cls-4" d="M149.62,177.74h3.22c2,0,2.95.95,2.95,2.85v2a2.28,2.28,0,0,1-1.74,2.36l2.48,6.31h-2.42l-2-6-.29,0v5.92h-2.21Zm2.21,1.92v3.89h.51a2.29,2.29,0,0,0,.64-.06.84.84,0,0,0,.6-.87v-2a.84.84,0,0,0-1-.93Z" transform="translate(-14.77 -7.8)"/><path class="cls-4" d="M157.36,177.74h5.73v1.92h-3.52v3.89h3v1.93h-3v3.88h3.52v1.93h-5.73Z" transform="translate(-14.77 -7.8)"/></g></g></svg>