<?xml version="1.0" standalone="no"?>
<!DOCTYPE svg PUBLIC "-//W3C//DTD SVG 20010904//EN"
 "http://www.w3.org/TR/2001/REC-SVG-20010904/DTD/svg10.dtd">
<svg version="1.0" xmlns="http://www.w3.org/2000/svg"
 width="584.000000pt" height="584.000000pt" viewBox="0 0 584.000000 584.000000"
 preserveAspectRatio="xMidYMid meet">
<metadata>
Created by potrace 1.14, written by Peter Selinger 2001-2017
</metadata>
<g transform="translate(0.000000,584.000000) scale(0.100000,-0.100000)"
fill="#000000" stroke="none">
<path d="M2555 5464 c-155 -27 -334 -100 -482 -196 -200 -130 -269 -211 -428
-506 -49 -89 -103 -177 -120 -195 -41 -42 -129 -89 -252 -133 -54 -19 -116
-43 -138 -53 -104 -49 -178 -133 -191 -216 -6 -41 -4 -44 43 -88 186 -174 414
-340 523 -381 78 -29 226 -53 345 -55 l30 -1 -3 -107 -4 -107 -56 -106 c-30
-58 -57 -107 -59 -109 -1 -2 -14 8 -28 23 -46 50 -123 64 -206 36 -27 -10 -63
-30 -79 -45 l-28 -27 -85 56 c-46 31 -127 76 -180 101 -93 44 -284 115 -310
115 -7 0 -33 20 -58 43 -53 53 -79 67 -116 67 -42 0 -72 -26 -99 -84 -31 -66
-30 -100 1 -131 24 -25 56 -31 134 -26 l34 3 -20 -29 c-28 -41 -69 -142 -78
-193 -25 -138 12 -260 105 -343 109 -98 284 -121 397 -51 15 10 53 44 84 76
31 33 58 55 60 50 6 -16 197 -238 285 -331 36 -38 43 -53 49 -100 13 -113 38
-229 70 -326 42 -124 58 -165 65 -164 3 0 29 49 58 107 80 163 69 158 154 75
40 -39 100 -95 132 -124 152 -138 142 -125 115 -132 -24 -5 -135 -22 -214 -32
-22 -3 -83 -8 -135 -11 -81 -6 -97 -10 -110 -28 -17 -24 -156 -191 -209 -251
-76 -85 -270 -273 -336 -326 -116 -93 -163 -122 -338 -210 -91 -45 -165 -84
-164 -85 6 -6 273 -18 392 -18 119 0 266 8 355 19 19 2 58 6 85 9 65 7 118 15
180 26 28 6 67 12 89 16 177 27 527 130 721 211 109 46 303 141 340 166 l37
25 151 -78 c209 -106 395 -180 622 -245 96 -28 323 -80 390 -89 23 -4 52 -9
65 -11 14 -3 61 -10 105 -16 44 -5 91 -12 105 -14 109 -17 483 -24 650 -12 36
3 81 6 100 6 31 1 12 13 -145 94 -171 87 -240 129 -309 187 -171 144 -306 282
-488 499 l-101 121 -61 1 c-34 0 -68 2 -76 4 -8 1 -44 5 -80 9 -77 7 -82 8
-217 30 -27 4 -20 15 55 82 42 38 117 107 165 154 49 47 92 86 96 88 8 3 69
-100 110 -186 34 -73 33 -73 76 43 39 104 68 226 86 360 9 69 14 85 43 115 18
19 50 55 72 79 21 25 46 52 54 60 8 9 52 60 97 113 l81 97 47 -54 c53 -63 145
-113 215 -119 62 -5 163 18 214 48 76 45 144 135 161 216 20 94 -5 232 -60
330 l-32 57 64 1 c77 0 109 18 118 66 8 42 -26 128 -63 156 -47 37 -117 17
-173 -48 -18 -22 -52 -38 -139 -66 -137 -45 -354 -149 -429 -207 l-54 -41 -26
21 c-96 79 -221 86 -293 19 -18 -17 -34 -26 -35 -22 -2 5 -27 53 -57 106 l-53
97 -1 110 c-1 108 0 111 21 111 81 2 261 32 323 54 106 39 266 151 458 320 37
32 78 67 91 78 50 39 23 141 -57 215 -55 50 -100 74 -216 114 -118 42 -225 94
-267 130 -37 33 -73 89 -154 243 -99 185 -143 250 -226 329 -193 186 -490 327
-741 352 l-71 7 -12 -64 c-17 -88 -65 -253 -91 -311 -28 -63 -76 -117 -105
-117 -36 0 -72 36 -104 103 -33 69 -74 201 -91 292 -19 98 -17 96 -58 94 -20
-2 -68 -8 -107 -15z m-1702 -2170 c153 -107 377 -317 377 -354 0 -47 -130
-120 -216 -120 -57 0 -134 32 -184 77 -100 89 -122 236 -59 382 12 28 23 51
25 51 2 0 28 -16 57 -36z m4216 -14 c64 -148 41 -293 -60 -384 -109 -98 -265
-99 -366 -3 -18 17 -33 39 -33 50 0 27 189 210 315 305 60 45 113 82 116 82 4
0 16 -23 28 -50z m-3488 -174 c30 -7 74 -12 96 -9 l41 4 -25 -76 -25 -75 -47
39 c-25 22 -66 60 -91 85 -50 52 -45 55 51 32z m2758 -3 c-17 -20 -92 -90
-135 -127 l-31 -26 -23 68 c-13 37 -25 73 -28 80 -3 9 2 10 19 4 27 -9 79 -6
124 7 17 5 43 10 59 10 25 1 27 -1 15 -16z"/>
<path d="M1088 721 c-3 -13 -2 -329 1 -353 2 -13 126 -9 145 5 25 18 33 67 31
192 -3 164 -5 167 -112 170 -49 2 -62 -1 -65 -14z m114 -59 c2 -9 3 -66 2
-125 -1 -81 -5 -111 -15 -118 -36 -22 -39 -12 -39 125 0 99 3 135 13 139 18 6
35 -2 39 -21z"/>
<path d="M1331 714 c-19 -24 -21 -40 -21 -169 0 -171 7 -187 85 -191 38 -2 52
2 70 20 22 22 23 31 24 168 2 133 0 146 -19 171 -18 23 -29 27 -70 27 -41 0
-52 -4 -69 -26z m86 -36 c5 -7 9 -65 8 -128 -3 -149 -1 -142 -27 -138 -22 3
-23 7 -26 127 -1 69 0 131 2 138 7 17 31 17 43 1z"/>
<path d="M1540 549 l0 -189 30 0 30 0 1 98 1 97 25 -97 c23 -88 28 -98 48 -98
20 0 25 10 46 98 l24 97 3 -98 3 -98 27 3 27 3 2 187 2 186 -31 -1 c-35 -2
-37 -6 -79 -165 -12 -46 -23 -81 -26 -78 -4 4 -21 61 -50 171 -8 33 -17 62
-20 64 -2 3 -17 6 -33 7 l-30 2 0 -189z"/>
<path d="M1867 731 c-2 -3 -3 -87 -3 -186 l1 -180 31 -3 30 -3 0 188 -1 188
-28 1 c-15 1 -29 -2 -30 -5z"/>
<path d="M1989 736 c-1 -1 -3 -86 -4 -189 l-2 -188 30 3 31 3 0 93 c-1 51 1
90 3 88 4 -4 18 -57 41 -151 6 -25 13 -31 40 -33 l33 -3 -2 189 -1 188 -30 0
-29 0 4 -93 c2 -51 1 -93 -2 -93 -3 0 -17 42 -31 93 -24 87 -26 92 -52 93 -16
1 -29 1 -29 0z"/>
<path d="M2219 728 c0 -7 -1 -92 -2 -188 l-1 -175 32 -3 32 -3 0 188 0 189
-30 2 c-18 1 -30 -3 -31 -10z"/>
<path d="M2364 730 c-28 -11 -34 -46 -34 -200 0 -154 8 -172 85 -176 39 -2 52
2 71 21 31 31 34 100 5 108 -28 7 -44 -7 -45 -40 -1 -23 -5 -28 -26 -28 l-25
0 -3 125 c-2 133 5 163 35 144 17 -11 19 -16 22 -56 1 -13 10 -18 31 -18 28 0
30 2 30 39 0 58 -31 91 -83 90 -23 0 -51 -4 -63 -9z"/>
<path d="M2574 719 c-17 -19 -19 -38 -20 -163 0 -98 3 -149 12 -168 15 -30 57
-43 104 -33 53 12 60 33 60 197 0 135 -2 150 -20 168 -29 29 -110 28 -136 -1z
m94 -172 l3 -137 -26 0 c-29 0 -27 -8 -29 135 -2 117 5 148 32 143 15 -3 17
-21 20 -141z"/>
<path d="M2800 720 c-14 -14 -20 -33 -20 -64 0 -64 13 -90 62 -123 30 -20 45
-38 48 -58 9 -45 1 -65 -26 -65 -20 0 -24 5 -24 30 0 34 -25 53 -52 39 -18
-10 -18 -38 -2 -90 12 -41 121 -50 149 -13 21 28 23 98 4 144 -6 14 -29 39
-52 55 -34 25 -43 37 -45 68 -2 27 1 39 13 43 23 9 36 -7 37 -45 1 -29 3 -32
31 -29 28 3 31 6 32 43 1 56 -29 85 -90 85 -32 0 -51 -6 -65 -20z"/>
<path d="M3051 717 c-5 -12 -12 -42 -16 -67 -4 -25 -9 -54 -11 -65 -3 -11 -7
-38 -10 -60 -3 -22 -7 -46 -10 -53 -2 -8 -7 -36 -10 -63 l-6 -49 31 0 c28 0
31 3 37 41 6 38 9 40 38 37 27 -3 32 -7 36 -38 4 -31 9 -35 38 -38 31 -3 32
-2 28 25 -3 15 -12 71 -21 123 -9 52 -21 122 -26 154 -6 33 -12 63 -14 66 -2
4 -20 7 -40 8 -28 1 -37 -3 -44 -21z m62 -219 c-2 -5 -13 -8 -23 -8 -19 0 -20
18 -5 98 2 9 4 24 5 32 2 8 8 -14 14 -50 7 -36 11 -68 9 -72z"/>
<path d="M3238 723 c-2 -10 -4 -94 -3 -188 0 -194 -6 -183 103 -177 52 3 57 6
58 28 2 23 -16 31 -50 25 -6 -1 -19 0 -30 3 -20 5 -21 12 -21 162 l0 157 -26
4 c-19 2 -28 -2 -31 -14z"/>
<path d="M3420 711 c0 -24 11 -93 36 -236 3 -16 9 -48 12 -70 7 -39 9 -40 50
-43 46 -3 48 -2 56 63 3 22 10 65 15 95 13 70 18 102 26 167 l6 52 -30 -1
c-17 -1 -31 -6 -32 -12 0 -6 -2 -19 -4 -29 -2 -10 -9 -60 -15 -110 -7 -51 -14
-99 -17 -107 -5 -13 -17 50 -38 199 -8 56 -11 61 -41 61 -20 0 -24 -5 -24 -29z"/>
<path d="M3694 686 c-4 -28 -8 -53 -9 -56 0 -3 -5 -27 -10 -55 -5 -27 -9 -52
-10 -55 0 -3 -4 -27 -8 -55 -4 -27 -10 -63 -13 -78 -6 -27 -4 -28 28 -25 29 3
34 7 38 38 4 31 9 35 36 38 29 3 32 1 38 -37 6 -38 9 -41 37 -41 l31 0 -7 48
c-4 26 -9 56 -10 67 -2 11 -10 61 -20 110 -9 50 -19 104 -22 121 -5 30 -8 32
-48 31 l-44 0 -7 -51z m70 -157 c5 -33 3 -36 -17 -36 -22 0 -23 2 -17 43 4 25
8 47 8 49 1 3 2 15 3 28 1 24 13 -19 23 -84z"/>
<path d="M3862 710 c2 -14 9 -25 18 -25 36 -1 39 -13 38 -168 l-2 -152 32 -3
32 -3 0 160 c0 160 0 161 23 162 12 1 26 1 30 0 4 -1 6 11 4 26 l-4 28 -87 0
-87 1 3 -26z"/>
<path d="M4109 733 c-31 -8 -38 -49 -36 -197 2 -172 7 -181 88 -181 82 0 89
16 89 190 0 129 -2 145 -21 169 -17 21 -28 26 -62 25 -23 -1 -49 -3 -58 -6z
m70 -56 c6 -9 10 -59 8 -138 l-2 -124 -25 0 -25 0 -2 125 c-1 138 12 177 46
137z"/>
<path d="M4300 550 l0 -187 30 -1 c29 -1 30 1 31 41 0 23 0 61 -1 85 -1 23 1
42 4 42 2 0 17 -38 31 -85 l27 -85 35 0 c29 0 34 3 28 18 -4 9 -18 48 -32 85
l-26 68 22 20 c17 16 21 31 21 83 0 83 -16 99 -105 102 l-65 2 0 -188z m108
84 c2 -27 -2 -45 -12 -53 -24 -20 -35 -4 -33 50 1 44 4 49 22 47 16 -2 21 -12
23 -44z"/>
<path d="M4519 732 c-1 -4 -2 -89 -3 -189 l-1 -182 62 -3 c79 -4 98 2 99 30 1
17 -4 22 -25 23 -82 3 -77 -3 -72 94 1 11 12 15 41 15 37 0 40 2 40 28 0 27
-2 28 -40 27 -22 -1 -40 3 -41 9 -5 81 -3 96 11 97 8 0 31 2 50 2 30 2 35 5
35 27 0 24 -2 25 -77 26 -43 1 -79 -1 -79 -4z"/>
</g>
</svg>
